<?xml version="1.0" encoding="UTF-8"?>
<svg id="Layer_2" data-name="Layer 2" xmlns="http://www.w3.org/2000/svg" viewBox="0 0 70.62 11.48">
  <defs>
    <style>
      .cls-1 {
        fill: #5b81f1;
      }
    </style>
  </defs>
  <g id="Layer_2-2" data-name="Layer 2">
    <g id="Layer_1-2" data-name="Layer 1-2">
      <g>
        <path class="cls-1" d="m42.14,11.48c-.11,0-.2-.07-.2-.16l.05-3.68-.05-3.47c0-.09.09-.16.2-.16h1.3c.11,0,.2.07.2.16l-.05,3.45.05,3.7c0,.09-.09.16-.2.16,0,0-1.3,0-1.3,0Z"/>
        <path class="cls-1" d="m26.17,11.43V1.67h6.13v1.24h-3.65v2.41h2.42v1.24h-2.42v3.63h3.65v1.24s-6.13,0-6.13,0Z"/>
        <path class="cls-1" d="m38.17,10.22v1.21h-3.67v-1.21h-1.21v-1.23h1.24v1.21h3.62v-3.65h-3.65v-1.21h-1.21v-2.46h1.21v-1.21h3.67v1.21h1.21v1.24h-1.24v-1.22h-3.62v2.42h3.65v1.23h1.21v3.67h-1.21Z"/>
        <path class="cls-1" d="m17.83,1.96h-1.21v-.29h3.39c1.93,0,2.47.09,3.14.5.66.41.99.99.99,1.74,0,1.33-1.14,2.24-2.98,2.35,1.02.15,1.84.61,2.27,1.3.31.5.42.99.42,1.74v.31c-.01.2-.01.37-.01.41,0,.75.23,1.13.67,1.13.13,0,.26-.03.57-.16l.1.26c-.38.16-.72.23-1.05.23-.72,0-1.39-.39-1.71-.99-.23-.45-.29-.77-.32-1.91-.03-.91-.12-1.3-.38-1.64-.34-.41-.8-.56-1.87-.56h-.45v4.75h1.21v.29h-3.99v-.29h1.21s0-9.17,0-9.17Zm2.09,4.09c1.04,0,1.52-.09,1.9-.37.42-.31.66-.92.66-1.7,0-.73-.23-1.33-.66-1.65-.39-.31-.77-.38-1.84-.38h-.59v4.09h.53Z"/>
        <path class="cls-1" d="m61.03,11.43c-.08,0-.15-.07-.15-.15l.07-4.56h-5.24l.07,4.56c0,.08-.07.15-.15.15h-1.05c-.08,0-.15-.07-.15-.15l.07-4.67-.07-4.78c0-.08.07-.15.15-.15h1.05c.08,0,.15.07.15.15l-.06,3.85h5.21l-.06-3.85c0-.08.07-.15.15-.15h1.05c.08,0,.15.07.15.15l-.07,4.78.07,4.67c0,.08-.07.15-.15.15h-1.05.01Z"/>
        <path class="cls-1" d="m14.39,10.2v1.23h-4.88v-1.23h-1.21V2.91h1.21v-1.24h4.88v1.24h1.21v7.29h-1.21Zm-1.68-7.28h-2.41v7.26h2.41V2.93h0Z"/>
        <path class="cls-1" d="m51.87,11.43v-1.23h-1.18v1.23h-3.67v-1.23h-1.21V2.91h1.21v-1.24h6.09v2.48h-1.24v-1.22h-3.62v7.26h2.41v-2.41h-1.21v-1.24h3.66v4.88h-1.24,0Z"/>
        <path class="cls-1" d="m68.19,2.91v8.52h-2.45V2.91h-2.44v-1.24h7.32v1.24h-2.44,0Z"/>
        <path class="cls-1" d="m.15,11.46c-.08,0-.15-.07-.15-.15l.07-4.75-.07-4.75c0-.08.07-.15.15-.15h6.96c.08,0,.15.07.15.15v.74c0,.08-.07.15-.15.15H2.61l-.07,3.43h4.33c.08,0,.15.07.15.15v.74c0,.08-.07.15-.15.15H2.54l.07,4.12c0,.08-.07.15-.15.15H.15v.02Z"/>
        <g id="Artwork_250" data-name="Artwork 250">
          <path class="cls-1" d="m43.94,2.38s-.11.06-.15.03l-.61-.43-.1.83c0,.06-.05.11-.12.11h-.45s-.1-.05-.09-.11l.15-.83-.82.45s-.11,0-.12-.04l-.14-.38s0-.12.06-.14l.8-.38-.63-.36s-.06-.1-.03-.14l.31-.43c.04-.05.11-.06.15-.03l.62.43.1-.85c0-.06.05-.11.12-.11h.44s.1.05.09.11l-.15.84.86-.48s.11,0,.12.04l.12.4c.02.05,0,.12-.06.14l-.84.41.62.34s.07.1.04.14c0,0-.29.44-.29.44Z"/>
        </g>
      </g>
    </g>
  </g>
</svg>