<svg width="10" height="11" viewBox="0 0 10 11" fill="none" xmlns="http://www.w3.org/2000/svg">
<path fill-rule="evenodd" clip-rule="evenodd" d="M2.20161 0H7.79855C9.00756 0 10 1.09131 10 2.42057V8.574C10 9.90886 9.00756 11 7.79855 11H2.20161C0.987496 11 0 9.90886 0 8.574V2.42057C0 1.09131 0.987496 0 2.20161 0Z" fill="#5B81F1"/>
<path fill-rule="evenodd" clip-rule="evenodd" d="M5.48077 4.25385V3.72212C5.48077 3.46736 5.63683 3.40643 5.74782 3.40643H6.42288V2.271H5.49095C4.45823 2.271 4.22637 3.11282 4.22637 3.65576V4.25385H3.62695V5.57751H4.23146V8.8842H5.43538V5.57751H6.32717L6.36746 5.05681L6.43801 4.25368H5.48092L5.48077 4.25385Z" fill="#FEFEFE"/>
</svg>
