<svg width="33" height="33" viewBox="0 0 33 33" fill="none" xmlns="http://www.w3.org/2000/svg">
<path d="M23.475 0H9.52479C4.2642 0 0 4.26442 0 9.52497V23.475C0 28.7361 4.2642 33 9.52479 33H23.475C28.7353 33 33 28.7358 33 23.475V9.52497C33 4.26442 28.7353 0 23.475 0ZM29.961 23.72C29.961 27.2122 27.1302 30.0425 23.6379 30.0425H9.36155C5.86983 30.0425 3.03903 27.212 3.03903 23.72V9.44374C3.03903 5.95127 5.87009 3.12126 9.36155 3.12126H23.6379C27.1302 3.12126 29.961 5.95153 29.961 9.44374V23.72Z" fill="#5B81F1"/>
<path d="M16.4997 8.01953C11.7708 8.01953 7.93741 11.8526 7.93741 16.5818C7.93741 21.311 11.771 25.1443 16.4997 25.1443C21.2285 25.1443 25.0623 21.3107 25.0623 16.5818C25.0623 11.8529 21.2287 8.01953 16.4997 8.01953ZM16.4997 22.1323C13.4342 22.1323 10.9494 19.6473 10.9494 16.5818C10.9494 13.5163 13.4345 11.0318 16.4997 11.0318C19.565 11.0318 22.0503 13.5163 22.0503 16.5818C22.0503 19.6473 19.5655 22.1323 16.4997 22.1323Z" fill="#5B81F1"/>
<path d="M25.3479 5.69922C24.2464 5.69922 23.3534 6.59226 23.3534 7.69377C23.3534 8.79529 24.2464 9.68807 25.3479 9.68807C26.4495 9.68807 27.3428 8.79529 27.3428 7.69377C27.3428 6.59226 26.4495 5.69922 25.3479 5.69922Z" fill="#5B81F1"/>
</svg>
